<?xml version="1.0" encoding="UTF-8"?>
<svg id="_圖層_2" data-name="圖層 2" xmlns="http://www.w3.org/2000/svg" viewBox="0 0 883.6 883.6">
  <defs>
    <style>
      .cls-1 {
        fill: #fff;
        stroke-width: 0px;
      }
    </style>
  </defs>
  <g id="_圖層_1-2" data-name="圖層 1">
    <g>
      <path class="cls-1" d="M331.48,506.21c-14.5-10.99-33.68-16.49-57.53-16.49h-119.96v137.5h117.86c10.75,0,21.05-1.05,30.87-3.15,9.82-2.11,18.47-5.62,25.96-10.53,7.47-4.9,13.44-11.57,17.89-20,4.44-8.41,6.66-19.17,6.66-32.27,0-25.71-7.26-44.07-21.75-55.07Z"/>
      <path class="cls-1" d="M660.23,406.24c-15.91,0-29.11,2.7-39.64,8.07-10.53,5.39-18.95,12.04-25.26,20-6.31,7.96-10.76,16.38-13.32,25.26-2.58,8.89-4.1,16.84-4.56,23.85h162.06c-4.68-25.26-12.97-44.43-24.91-57.53-11.92-13.09-30.05-19.64-54.37-19.64Z"/>
      <path class="cls-1" d="M265.54,414.67c19.64,0,35.78-4.68,48.41-14.03,12.63-9.35,18.94-24.55,18.94-45.6,0-11.69-2.1-21.28-6.31-28.76-4.21-7.48-9.82-13.34-16.84-17.54-7.02-4.21-15.08-7.12-24.2-8.77-9.38-1.66-18.89-2.48-28.41-2.45h-103.13v117.17h111.55Z"/>
      <path class="cls-1" d="M785.62,0H97.98C43.87,0,0,43.87,0,97.98v687.65c0,54.11,43.87,97.98,97.98,97.98h687.65c54.11,0,97.98-43.87,97.98-97.98V97.98c0-54.11-43.87-97.98-97.98-97.98ZM560.43,237.34h202.48v56.14h-202.48v-56.14ZM448.65,633.21c-9.82,18.48-23.04,33.56-39.63,45.24-16.61,11.7-35.55,20.35-56.83,25.97-21.41,5.62-43.46,8.45-65.6,8.41H43.84V211.91h235.72c23.85,0,45.6,2.1,65.25,6.32,19.64,4.21,36.48,11.11,50.51,20.69,14.03,9.59,24.91,22.34,32.62,38.24s11.58,35.55,11.58,58.93c0,25.26-5.73,46.31-17.19,63.14-11.47,16.84-28.41,30.63-50.86,41.39,30.87,8.89,53.9,24.45,69.1,46.65,15.19,22.22,22.81,49,22.81,80.33,0,25.26-4.91,47.13-14.74,65.6ZM839.14,546.56h-261.68c1.4,32.26,9.57,55.66,24.55,70.15h0c14.97,14.51,36.48,21.75,64.55,21.75,20.1,0,37.41-5.02,51.91-15.08,14.5-10.04,23.39-20.69,26.66-31.92h87.69c-14.03,43.49-35.55,74.6-64.54,93.31-29.01,18.71-64.09,28.06-105.24,28.06-28.53,0-54.26-4.56-77.17-13.68-22.92-9.12-42.34-22.1-58.23-38.93-15.91-16.83-28.18-36.93-36.84-60.33-8.66-23.38-12.97-49.11-12.97-77.17s4.43-52.38,13.33-75.76c8.88-23.38,21.5-43.61,37.89-60.69,16.36-17.06,35.89-30.51,58.58-40.34,22.68-9.82,47.82-14.73,75.42-14.73,30.87,0,57.76,5.96,80.69,17.89,22.91,11.92,41.74,27.96,56.48,48.05,14.73,20.11,25.36,43.04,31.93,68.75,6.55,25.73,8.88,52.62,7.02,80.68Z"/>
    </g>
  </g>
</svg>