<?xml version="1.0" encoding="UTF-8"?>
<svg id="_圖層_2" data-name="圖層 2" xmlns="http://www.w3.org/2000/svg" viewBox="0 0 135.93 135.93">
  <defs>
    <style>
      .cls-1 {
        fill: #fff;
        stroke-width: 0px;
      }
    </style>
  </defs>
  <g id="_圖層_1-2" data-name="圖層 1">
    <g>
      <path class="cls-1" d="M68.41,55.39c-6.45-.06-11.72,5.11-11.78,11.54-.06,6.43,5.11,11.7,11.56,11.76h0c6.45.08,11.72-5.1,11.78-11.53.06-6.43-5.11-11.69-11.56-11.77Z"/>
      <path class="cls-1" d="M68.59,35.47c-17.37-.17-31.59,13.76-31.76,31.1h0c-.16,17.35,13.81,31.53,31.17,31.7,17.37.16,31.59-13.77,31.76-31.11.16-17.34-13.79-31.53-31.17-31.7ZM68.08,90.05c-12.73-.12-22.95-10.52-22.84-23.23.13-12.7,10.53-22.9,23.25-22.79,0,0,0,0-.01,0h.04s-.02,0-.02,0c12.74.13,22.94,10.52,22.83,23.23-.11,12.7-10.52,22.91-23.24,22.79Z"/>
      <path class="cls-1" d="M123.12,0H12.81C5.73,0,0,5.73,0,12.81v110.32c0,7.07,5.73,12.81,12.81,12.81h110.32c7.07,0,12.81-5.73,12.81-12.81V12.81c0-7.07-5.73-12.81-12.81-12.81ZM67.97,112.43c-25.03,0-45.31-20.25-45.31-45.23V25.73c0-2.07,1.7-3.76,3.76-3.76h41.55c25.03,0,45.31,20.25,45.31,45.23s-20.28,45.23-45.31,45.23Z"/>
      <path class="cls-1" d="M68.47,44.03s0,0,.01,0c0,0,.02,0,.02,0h-.04Z"/>
    </g>
  </g>
</svg>