<?xml version="1.0" encoding="UTF-8"?>
<svg id="_圖層_2" data-name="圖層 2" xmlns="http://www.w3.org/2000/svg" viewBox="0 0 135.93 135.93">
  <defs>
    <style>
      .cls-1 {
        fill: #fff;
        stroke-width: 0px;
      }
    </style>
  </defs>
  <g id="_圖層_1-2" data-name="圖層 1">
    <path class="cls-1" d="M119.75,0H16.18C7.25,0,0,7.25,0,16.18v103.57c0,8.93,7.25,16.18,16.18,16.18h103.57c8.93,0,16.18-7.25,16.18-16.18V16.18c0-8.93-7.25-16.18-16.18-16.18ZM42.07,51.78v61.49h-19.42v-61.49h19.42ZM22.66,33.89c0-4.53,3.88-7.99,9.71-7.99s9.48,3.46,9.71,7.99c0,4.53-3.62,8.19-9.71,8.19s-9.71-3.66-9.71-8.19ZM113.28,113.28h-19.42v-32.37c0-6.47-3.24-12.95-11.33-13.08h-.26c-7.83,0-11.07,6.67-11.07,13.08v32.37h-19.42v-61.49h19.42v8.29s6.25-8.29,18.8-8.29,23.27,8.84,23.27,26.73v34.76Z"/>
  </g>
</svg>