<?xml version="1.0" encoding="UTF-8"?>
<svg id="_圖層_2" data-name="圖層 2" xmlns="http://www.w3.org/2000/svg" viewBox="0 0 135.93 135.93">
  <defs>
    <style>
      .cls-1 {
        fill: #fff;
        stroke-width: 0px;
      }
    </style>
  </defs>
  <g id="_圖層_1-2" data-name="圖層 1">
    <g>
      <path class="cls-1" d="M23.69,43.66v50.6c0,.64.12,1.25.3,1.83l28.16-30.29-28.46-22.14Z"/>
      <path class="cls-1" d="M67.97,78.18l-10.82-8.17-28.54,30.41c.45.1,78.25.1,78.7,0l-29-30.46-10.35,8.23Z"/>
      <polygon class="cls-1" points="109.08 37.34 26.86 37.34 67.97 68.96 109.08 37.34"/>
      <path class="cls-1" d="M123.12,0H12.81C5.73,0,0,5.73,0,12.81v110.32c0,7.07,5.73,12.81,12.81,12.81h110.32c7.07,0,12.81-5.73,12.81-12.81V12.81c0-7.07-5.73-12.81-12.81-12.81ZM118.56,94.26c0,6.99-5.66,12.65-12.65,12.65H30.02c-6.99,0-12.65-5.66-12.65-12.65v-50.6c0-6.99,5.66-12.65,12.65-12.65h75.9c6.99,0,12.65,5.66,12.65,12.65v50.6Z"/>
      <path class="cls-1" d="M111.94,96.09c.18-.58.3-1.19.3-1.83v-50.6l-28.46,22.14,28.16,30.29Z"/>
    </g>
  </g>
</svg>